# xmcd CD database file
#
# Track frame offsets:
#	182
#	7857
#	30982
#	62657
#	73682
#	87482
#	100382
#	123932
#	138157
#	153657
#	163232
#	192932
#
# Disc length: 2675 seconds
#
# Revision: 1
# Processed by: cddbd v1.5.2PL0 Copyright (c) Steve Scherf et al.
# Submitted via: Fey Extractor 
#
DISCID=9a0a710c
DTITLE=American Folk Blues Festival '69 - American Folk Blues Festival '69
DYEAR=1991
DGENRE=Blues
TTITLE0=American Folk Blues Festival '69 Juke Boy Bowner - Jumpin' With Juke Boy
TTITLE1=American Folk Blues Festival '69 Earl Hooker - Carey Bell - Robert St. Julien - Mack Thompson - Going Up and Down
TTITLE2=American Folk Blues Festival '69 Carey Bell - Earl Hooker - Robert St. Julien - Mack Thompson - Medley:
TTITLE3=American Folk Blues Festival '69 Juke Boy Bowner - Running Shoes
TTITLE4=American Folk Blues Festival '69 John Jackson - Poor Boy
TTITLE5=American Folk Blues Festival '69 Clifton Chenier - Cleveland Chenier - Robert St. Julien - Zydeco Et pas sale
TTITLE6=American Folk Blues Festival '69 Earl Hooker - Carey Bell - Robert St. Julien - Mack Thompson - Blue Shadows Fall
TTITLE7=American Folk Blues Festival '69 Clifton Chenier - Cleveland Chenier - Robert St. Julien - Wrap It up
TTITLE8=American Folk Blues Festival '69 Magic Sam - Robert St. Julien - Mack Thompson - Easy Baby
TTITLE9=American Folk Blues Festival '69 Magic Sam - Robert St. Julien - Mack Thompson - Looking Good
TTITLE10=American Folk Blues Festival '69 Whistling Alex Moore - Across The Atlantic Ocean
TTITLE11=American Folk Blues Festival '69 John Jackson - Breakdown
EXTD=YEAR: 1991
EXTT0=
EXTT1=
EXTT2=
EXTT3=
EXTT4=
EXTT5=
EXTT6=
EXTT7=
EXTT8=
EXTT9=
EXTT10=
EXTT11=
PLAYORDER=
